<svg width="369" height="35" viewBox="0 0 369 35" fill="none" xmlns="http://www.w3.org/2000/svg">
<g clip-path="url(#clip0_2128_18328)">
<circle cx="14.36" cy="17.4115" r="14.36" fill="#FF4112"/>
<path d="M16.687 26.4588V11.0837H14.8834C13.5824 11.0837 12.5968 11.3597 11.9266 11.9116C11.2564 12.4438 10.9213 13.1534 10.9213 14.0405C10.9213 14.7107 11.0396 15.2823 11.2761 15.7554C11.5127 16.2285 11.8576 16.6621 12.311 17.0564C12.7644 17.4506 13.336 17.8843 14.0259 18.3573L15.7408 19.5105L10.7143 26.4588H6.92969L11.7196 19.954L13.9668 21.9646L12.1927 20.841C11.2071 20.1905 10.3595 19.5499 9.6499 18.9191C8.94028 18.2883 8.39821 17.5984 8.02369 16.8494C7.64916 16.1003 7.4619 15.2232 7.4619 14.2179C7.4619 12.4832 8.08282 11.0837 9.32466 10.0193C10.5862 8.93514 12.4293 8.39307 14.8538 8.39307H20.2055V26.4588H16.687Z" fill="white"/>
</g>
<path d="M45.5267 31.7715C37.6051 31.7715 31.1667 25.3587 31.1667 17.4371C31.1667 9.51538 37.6051 3.05151 45.5267 3.05151C53.4484 3.05151 59.8867 9.51538 59.8867 17.4371C59.8867 25.3587 53.4484 31.7715 45.5267 31.7715Z" fill="#FF4112"/>
<path d="M43.3026 4.99463L27.2825 29.9915H34.6265L43.8803 15.5824L43.6543 15.4802L41.0884 25.791L46.5208 26.7478L52.1045 19.7319L51.8019 19.5806L49.9158 27.5514L61.7512 25.2959L59.3366 21.3193L55.0712 22.2958L55.5742 22.8754L57.5605 14.5509L52.9336 11.4565L46.8725 19.0776L47.1751 19.2289L49.6643 9.24428L43.3026 4.99463Z" fill="#FFDD00"/>
<path d="M43.3026 4.99463L27.2825 29.9915H34.6265L43.8803 15.5824L43.6543 15.4802L41.0884 25.791L46.5208 26.7478L52.1045 19.7319L51.8019 19.5806L49.9158 27.5514L54.6743 26.6448L57.5605 14.5509L52.9336 11.4565L46.8725 19.0776L47.1751 19.2289L49.6643 9.24428L43.3026 4.99463Z" fill="#FFDD00"/>
<path d="M65.3906 26.4586L74.3199 8.39307H81.1204L82.51 19.3921L89.3992 8.39307H96.1405V26.4586H89.547V16.7606L83.4266 26.4586H76.8331L75.5617 16.6719L70.7127 26.4586H65.3906ZM116.394 22.881C116.394 23.492 116.404 24.0932 116.424 24.6846C116.443 25.2759 116.483 25.8574 116.542 26.4291H110.421C110.303 26.2122 110.185 25.9166 110.067 25.542C109.948 25.1478 109.87 24.7339 109.83 24.3002C109.199 25.0493 108.401 25.6702 107.435 26.1629C106.489 26.636 105.139 26.8726 103.384 26.8726C101.61 26.8726 100.191 26.4586 99.1268 25.6307C98.0821 24.8029 97.5597 23.699 97.5597 22.3192C97.5597 21.038 97.9244 20.0524 98.6537 19.3625C99.4028 18.6529 100.566 18.1601 102.143 17.8841C103.72 17.5885 105.74 17.4406 108.204 17.4406H109.741V17.1154C109.741 16.4846 109.475 16.0017 108.943 15.6666C108.411 15.3315 107.415 15.164 105.957 15.164C104.518 15.164 103.177 15.3512 101.936 15.7257C100.714 16.0805 99.7181 16.4353 98.9494 16.7901V12.8281C99.8167 12.5128 100.98 12.1974 102.438 11.882C103.917 11.5469 105.602 11.3794 107.494 11.3794C109.406 11.3794 111.023 11.5568 112.343 11.9116C113.664 12.2467 114.669 12.8281 115.359 13.656C116.049 14.4642 116.394 15.5877 116.394 17.0267V22.881ZM118.405 11.8229H124.525L124.88 14.3361C125.629 13.3505 126.526 12.631 127.57 12.1777C128.615 11.7243 129.818 11.4976 131.178 11.4976C132.715 11.4976 134.095 11.7736 135.317 12.3255C136.539 12.8774 137.505 13.7152 138.215 14.8387C138.924 15.9623 139.279 17.3815 139.279 19.0964C139.279 20.8113 138.924 22.2404 138.215 23.3836C137.525 24.5072 136.559 25.3548 135.317 25.9264C134.075 26.498 132.656 26.7839 131.059 26.7839C129.877 26.7839 128.763 26.5769 127.718 26.1629C126.693 25.7293 125.806 25.0493 125.057 24.1228V30.2728H118.405V11.8229ZM158.557 19.0964C158.557 17.6377 158.951 16.3368 159.74 15.1935C160.548 14.0503 161.691 13.1534 163.169 12.5029C164.667 11.8327 166.432 11.4976 168.462 11.4976C170.571 11.4976 172.335 11.8623 173.754 12.5916C175.193 13.3209 176.199 14.3558 176.77 15.6962C177.362 17.0365 177.44 18.6233 177.007 20.4565H165.328C165.564 21.3041 166.087 21.9447 166.895 22.3783C167.723 22.7923 168.945 22.9993 170.561 22.9993C171.685 22.9993 172.729 22.9007 173.695 22.7036C174.661 22.4868 175.558 22.2404 176.386 21.9644V25.4829C175.538 25.8771 174.592 26.1925 173.547 26.4291C172.522 26.6656 171.172 26.7839 169.497 26.7839C165.811 26.7839 163.061 26.1038 161.247 24.7437C159.454 23.3639 158.557 21.4815 158.557 19.0964ZM177.569 11.8229H194.451V15.6075H189.188V26.4291H182.536V15.6075H177.569V11.8229ZM140.55 11.8229H147.203V18.4459L153.501 11.8229H159.237L153.383 17.9137L160.449 26.4291H152.407L147.203 19.9834V26.4291H140.55V11.8229ZM168.491 14.8091C167.585 14.8091 166.865 15.0753 166.333 15.6075C165.801 16.12 165.456 16.7803 165.298 17.5885H171.152C171.133 16.7803 170.916 16.12 170.502 15.6075C170.088 15.0753 169.418 14.8091 168.491 14.8091ZM132.479 19.0964C132.479 17.9137 132.153 16.9774 131.503 16.2875C130.872 15.5779 129.965 15.2231 128.783 15.2231C127.699 15.2231 126.792 15.5582 126.062 16.2284C125.333 16.8788 124.969 17.8349 124.969 19.0964C124.969 20.3579 125.323 21.3336 126.033 22.0235C126.762 22.6937 127.679 23.0288 128.783 23.0288C130.005 23.0288 130.921 22.674 131.532 21.9644C132.163 21.2548 132.479 20.2988 132.479 19.0964ZM109.741 20.1312H108.233C106.795 20.1312 105.76 20.2495 105.129 20.486C104.518 20.7226 104.212 21.176 104.212 21.8461C104.212 22.4178 104.409 22.8416 104.804 23.1175C105.218 23.3738 105.71 23.5019 106.282 23.5019C107.149 23.5019 107.859 23.3442 108.411 23.0288C108.983 22.6937 109.426 22.3094 109.741 21.8757V20.1312Z" fill="white"/>
<g clip-path="url(#paint0_angular_2128_18328_clip_path)" data-figma-skip-parse="true"><g transform="matrix(-0.00327089 0.0114342 -0.0114342 -0.00327089 263.371 17.4127)"><foreignObject x="-2311.42" y="-2311.42" width="4622.84" height="4622.84"><div xmlns="http://www.w3.org/1999/xhtml" style="background:conic-gradient(from 90deg,rgba(255, 30, 153, 1) 0deg,rgba(255, 0, 96, 1) 64.4441deg,rgba(255, 55, 38, 1) 143.899deg,rgba(255, 140, 22, 1) 270deg,rgba(255, 31, 154, 1) 360deg);height:100%;width:100%;opacity:1"></div></foreignObject></g></g><path d="M267.051 31.1455C270.155 30.3138 271.997 27.1231 271.166 24.0189C270.334 20.9147 267.143 19.0725 264.039 19.9043L265.545 25.5249L267.051 31.1455ZM262.704 14.9211C265.808 14.0893 267.65 10.8986 266.818 7.79441C265.987 4.69023 262.796 2.84807 259.692 3.67984L261.198 9.30045L262.704 14.9211ZM265.545 25.5249L264.039 19.9043C262.663 20.273 261.248 19.4564 260.88 18.0803L255.259 19.5864L249.638 21.0924C251.671 28.6768 259.467 33.1778 267.051 31.1455L265.545 25.5249ZM255.259 19.5864L260.88 18.0803C260.511 16.7042 261.328 15.2898 262.704 14.9211L261.198 9.30045L259.692 3.67984C252.107 5.71208 247.606 13.508 249.638 21.0924L255.259 19.5864Z" data-figma-gradient-fill="{&#34;type&#34;:&#34;GRADIENT_ANGULAR&#34;,&#34;stops&#34;:[{&#34;color&#34;:{&#34;r&#34;:1.0,&#34;g&#34;:0.12064302712678909,&#34;b&#34;:0.60342729091644287,&#34;a&#34;:1.0},&#34;position&#34;:0.0},{&#34;color&#34;:{&#34;r&#34;:1.0,&#34;g&#34;:0.0,&#34;b&#34;:0.37647059559822083,&#34;a&#34;:1.0},&#34;position&#34;:0.17901131510734558},{&#34;color&#34;:{&#34;r&#34;:1.0,&#34;g&#34;:0.21568627655506134,&#34;b&#34;:0.14901961386203766,&#34;a&#34;:1.0},&#34;position&#34;:0.39972007274627686},{&#34;color&#34;:{&#34;r&#34;:1.0,&#34;g&#34;:0.54901963472366333,&#34;b&#34;:0.086274512112140656,&#34;a&#34;:1.0},&#34;position&#34;:0.750},{&#34;color&#34;:{&#34;r&#34;:1.0,&#34;g&#34;:0.12156862765550613,&#34;b&#34;:0.60392159223556519,&#34;a&#34;:1.0},&#34;position&#34;:1.0}],&#34;stopsVar&#34;:[{&#34;color&#34;:{&#34;r&#34;:1.0,&#34;g&#34;:0.12064302712678909,&#34;b&#34;:0.60342729091644287,&#34;a&#34;:1.0},&#34;position&#34;:0.0},{&#34;color&#34;:{&#34;r&#34;:1.0,&#34;g&#34;:0.0,&#34;b&#34;:0.37647059559822083,&#34;a&#34;:1.0},&#34;position&#34;:0.17901131510734558},{&#34;color&#34;:{&#34;r&#34;:1.0,&#34;g&#34;:0.21568627655506134,&#34;b&#34;:0.14901961386203766,&#34;a&#34;:1.0},&#34;position&#34;:0.39972007274627686},{&#34;color&#34;:{&#34;r&#34;:1.0,&#34;g&#34;:0.54901963472366333,&#34;b&#34;:0.086274512112140656,&#34;a&#34;:1.0},&#34;position&#34;:0.750},{&#34;color&#34;:{&#34;r&#34;:1.0,&#34;g&#34;:0.12156862765550613,&#34;b&#34;:0.60392159223556519,&#34;a&#34;:1.0},&#34;position&#34;:1.0}],&#34;transform&#34;:{&#34;m00&#34;:-6.5417790412902832,&#34;m01&#34;:-22.868480682373047,&#34;m02&#34;:278.07647705078125,&#34;m10&#34;:22.868480682373047,&#34;m11&#34;:-6.5417790412902832,&#34;m12&#34;:9.2493371963500977},&#34;opacity&#34;:1.0,&#34;blendMode&#34;:&#34;NORMAL&#34;,&#34;visible&#34;:true}"/>
<g clip-path="url(#paint1_angular_2128_18328_clip_path)" data-figma-skip-parse="true"><g transform="matrix(-0.000372548 0.0115892 0.0115892 0.000372548 263.371 17.4126)"><foreignObject x="-2154.49" y="-2154.49" width="4308.99" height="4308.99"><div xmlns="http://www.w3.org/1999/xhtml" style="background:conic-gradient(from 90deg,rgba(255, 250, 1, 1) 0deg,rgba(255, 140, 22, 1) 122.791deg,rgba(255, 55, 38, 1) 197.745deg,rgba(255, 0, 96, 1) 252deg,rgba(255, 250, 1, 1) 308.099deg,rgba(255, 250, 1, 1) 360deg);height:100%;width:100%;opacity:1"></div></foreignObject></g></g><path d="M267.051 31.1455C263.947 31.9772 260.756 30.1351 259.924 27.0309C259.093 23.9267 260.935 20.736 264.039 19.9042L265.545 25.5248L267.051 31.1455ZM262.704 14.921C259.599 15.7528 256.409 13.9106 255.577 10.8064C254.745 7.70223 256.587 4.51152 259.692 3.67976L261.198 9.30038L262.704 14.921ZM265.545 25.5248L264.039 19.9042C265.415 19.5355 266.232 18.1211 265.863 16.745L271.483 15.2389L277.104 13.7329C279.136 21.3173 274.635 29.1132 267.051 31.1455L265.545 25.5248ZM271.483 15.2389L265.863 16.745C265.494 15.3689 264.08 14.5523 262.704 14.921L261.198 9.30038L259.692 3.67976C267.276 1.64751 275.072 6.14846 277.104 13.7329L271.483 15.2389Z" data-figma-gradient-fill="{&#34;type&#34;:&#34;GRADIENT_ANGULAR&#34;,&#34;stops&#34;:[{&#34;color&#34;:{&#34;r&#34;:1.0,&#34;g&#34;:0.98039215803146362,&#34;b&#34;:0.0039215688593685627,&#34;a&#34;:1.0},&#34;position&#34;:0.0},{&#34;color&#34;:{&#34;r&#34;:1.0,&#34;g&#34;:0.54901963472366333,&#34;b&#34;:0.086274512112140656,&#34;a&#34;:1.0},&#34;position&#34;:0.34108650684356689},{&#34;color&#34;:{&#34;r&#34;:1.0,&#34;g&#34;:0.21568627655506134,&#34;b&#34;:0.14901961386203766,&#34;a&#34;:1.0},&#34;position&#34;:0.54929119348526001},{&#34;color&#34;:{&#34;r&#34;:1.0,&#34;g&#34;:0.0,&#34;b&#34;:0.37647059559822083,&#34;a&#34;:1.0},&#34;position&#34;:0.69999998807907104},{&#34;color&#34;:{&#34;r&#34;:1.0,&#34;g&#34;:0.98039215803146362,&#34;b&#34;:0.0039215688593685627,&#34;a&#34;:1.0},&#34;position&#34;:0.85583174228668213}],&#34;stopsVar&#34;:[{&#34;color&#34;:{&#34;r&#34;:1.0,&#34;g&#34;:0.98039215803146362,&#34;b&#34;:0.0039215688593685627,&#34;a&#34;:1.0},&#34;position&#34;:0.0},{&#34;color&#34;:{&#34;r&#34;:1.0,&#34;g&#34;:0.54901963472366333,&#34;b&#34;:0.086274512112140656,&#34;a&#34;:1.0},&#34;position&#34;:0.34108650684356689},{&#34;color&#34;:{&#34;r&#34;:1.0,&#34;g&#34;:0.21568627655506134,&#34;b&#34;:0.14901961386203766,&#34;a&#34;:1.0},&#34;position&#34;:0.54929119348526001},{&#34;color&#34;:{&#34;r&#34;:1.0,&#34;g&#34;:0.0,&#34;b&#34;:0.37647059559822083,&#34;a&#34;:1.0},&#34;position&#34;:0.69999998807907104},{&#34;color&#34;:{&#34;r&#34;:1.0,&#34;g&#34;:0.98039215803146362,&#34;b&#34;:0.0039215688593685627,&#34;a&#34;:1.0},&#34;position&#34;:0.85583174228668213}],&#34;transform&#34;:{&#34;m00&#34;:-0.74509650468826294,&#34;m01&#34;:23.178405761718750,&#34;m02&#34;:252.15458679199219,&#34;m10&#34;:23.178405761718750,&#34;m11&#34;:0.74509650468826294,&#34;m12&#34;:5.4508571624755859},&#34;opacity&#34;:1.0,&#34;blendMode&#34;:&#34;NORMAL&#34;,&#34;visible&#34;:true}"/>
<g opacity="0.8" filter="url(#filter0_f_2128_18328)">
<ellipse cx="262.243" cy="24.5801" rx="2.97101" ry="1.87329" transform="rotate(-63.054 262.243 24.5801)" fill="white"/>
</g>
<path d="M364.921 21.1151H364.409C362.863 21.1151 361.759 21.2982 361.096 21.6644C360.434 22.0103 360.102 22.6206 360.102 23.4955C360.102 24.1465 360.283 24.6755 360.644 25.0824C361.026 25.469 361.598 25.6622 362.361 25.6622C363.003 25.6622 363.535 25.5503 363.957 25.3265C364.379 25.0824 364.7 24.7874 364.921 24.4415V21.1151ZM368.504 24.35C368.504 25.6114 368.565 26.8626 368.685 28.1037H365.192C365.131 27.9409 365.071 27.7476 365.011 27.5238C364.971 27.3 364.941 27.0864 364.921 26.8829H364.77C364.429 27.2492 363.987 27.5849 363.445 27.89C362.903 28.1749 362.11 28.3173 361.066 28.3173C359.681 28.3173 358.556 27.9002 357.693 27.0661C356.85 26.2319 356.428 25.0315 356.428 23.4649C356.428 21.8984 357.061 20.6878 358.325 19.8333C359.59 18.9585 361.598 18.5211 364.349 18.5211H364.921V17.6666C364.921 16.8324 364.72 16.2526 364.318 15.927C363.917 15.5812 363.284 15.4082 362.421 15.4082C361.959 15.4082 361.488 15.4591 361.006 15.5608C360.524 15.6422 360.062 15.7541 359.62 15.8965C359.199 16.0389 358.797 16.2017 358.416 16.3848C358.054 16.5679 357.753 16.751 357.512 16.9341V13.9129C358.054 13.5873 358.777 13.272 359.681 12.9668C360.584 12.6616 361.638 12.509 362.843 12.509C364.75 12.509 366.165 12.8956 367.089 13.6687C368.033 14.4418 368.504 15.7643 368.504 17.636V24.35Z" fill="white"/>
<path d="M350.908 15.6223V28.1041H347.324V15.6223H343.108V12.7537H355.124V15.6223H350.908Z" fill="white"/>
<path d="M335.448 12.4482C336.432 12.4482 337.335 12.6212 338.159 12.967C338.982 13.3129 339.684 13.8317 340.267 14.5235C340.849 15.1948 341.301 16.029 341.622 17.0259C341.963 18.0025 342.134 19.1317 342.134 20.4134C342.134 21.6952 341.963 22.8345 341.622 23.8314C341.301 24.8283 340.849 25.6726 340.267 26.3644C339.684 27.0358 338.982 27.5444 338.159 27.8903C337.335 28.2362 336.432 28.4091 335.448 28.4091C334.464 28.4091 333.561 28.2362 332.738 27.8903C331.915 27.5444 331.212 27.0358 330.63 26.3644C330.048 25.6726 329.586 24.8385 329.245 23.8619C328.923 22.865 328.763 21.7257 328.763 20.4439C328.763 19.1622 328.923 18.0228 329.245 17.0259C329.586 16.029 330.048 15.1948 330.63 14.5235C331.212 13.8317 331.915 13.3129 332.738 12.967C333.561 12.6212 334.464 12.4482 335.448 12.4482ZM335.448 25.5404C336.452 25.5404 337.195 25.1335 337.677 24.3197C338.179 23.5059 338.43 22.2038 338.43 20.4134C338.43 18.623 338.179 17.3311 337.677 16.5376C337.195 15.7238 336.452 15.3169 335.448 15.3169C334.444 15.3169 333.692 15.7238 333.19 16.5376C332.708 17.3514 332.467 18.6535 332.467 20.4439C332.467 22.2343 332.708 23.5364 333.19 24.3502C333.692 25.1437 334.444 25.5404 335.448 25.5404Z" fill="white"/>
<path d="M313.22 19.0707C313.22 17.2193 313.36 15.5815 313.641 14.1573C313.922 12.7331 314.404 11.5226 315.087 10.5257C315.769 9.50841 316.673 8.71495 317.797 8.14528C318.942 7.57561 320.367 7.21957 322.074 7.07715C323.118 6.99577 323.891 6.90422 324.392 6.80249C324.894 6.68042 325.306 6.53801 325.627 6.37524V9.30496C325.326 9.48807 324.924 9.65083 324.423 9.79324C323.941 9.91532 323.248 10.0069 322.345 10.0679C321.301 10.1493 320.407 10.3019 319.664 10.5257C318.942 10.7291 318.339 11.0546 317.857 11.5022C317.376 11.9295 316.994 12.489 316.713 13.1807C316.432 13.8725 316.231 14.7168 316.111 15.7137C316.532 14.8185 317.135 14.137 317.918 13.669C318.721 13.1807 319.664 12.9366 320.749 12.9366C321.552 12.9366 322.304 13.0993 323.007 13.4249C323.71 13.7504 324.322 14.2387 324.844 14.8897C325.366 15.5408 325.778 16.3546 326.079 17.3312C326.38 18.3077 326.531 19.4369 326.531 20.7186C326.531 21.9394 326.36 23.0278 326.019 23.9841C325.697 24.9403 325.236 25.7439 324.633 26.395C324.051 27.046 323.348 27.5445 322.525 27.8903C321.702 28.2362 320.799 28.4091 319.815 28.4091C318.831 28.4091 317.938 28.2464 317.135 27.9209C316.332 27.575 315.639 27.046 315.057 26.3339C314.475 25.6218 314.023 24.7165 313.702 23.6178C313.38 22.5192 313.22 21.2171 313.22 19.7116V19.0707ZM316.924 20.7186C316.924 22.3666 317.165 23.5873 317.647 24.3808C318.149 25.1539 318.871 25.5405 319.815 25.5405C320.819 25.5405 321.582 25.1743 322.104 24.4418C322.626 23.689 322.887 22.448 322.887 20.7186C322.887 18.969 322.636 17.7177 322.134 16.9649C321.632 16.2122 320.899 15.8358 319.935 15.8358C318.932 15.8358 318.179 16.2325 317.677 17.026C317.175 17.7991 316.924 19.03 316.924 20.7186Z" fill="white"/>
<path d="M306.801 21.1151H306.289C304.743 21.1151 303.638 21.2982 302.976 21.6644C302.313 22.0103 301.982 22.6206 301.982 23.4955C301.982 24.1465 302.163 24.6755 302.524 25.0824C302.906 25.469 303.478 25.6622 304.241 25.6622C304.883 25.6622 305.415 25.5503 305.837 25.3265C306.258 25.0824 306.58 24.7874 306.801 24.4415V21.1151ZM310.384 24.35C310.384 25.6114 310.445 26.8626 310.565 28.1037H307.072C307.011 27.9409 306.951 27.7476 306.891 27.5238C306.851 27.3 306.821 27.0864 306.801 26.8829H306.65C306.309 27.2492 305.867 27.5849 305.325 27.89C304.783 28.1749 303.99 28.3173 302.946 28.3173C301.561 28.3173 300.436 27.9002 299.573 27.0661C298.73 26.2319 298.308 25.0315 298.308 23.4649C298.308 21.8984 298.941 20.6878 300.205 19.8333C301.47 18.9585 303.478 18.5211 306.228 18.5211H306.801V17.6666C306.801 16.8324 306.6 16.2526 306.198 15.927C305.797 15.5812 305.164 15.4082 304.301 15.4082C303.839 15.4082 303.367 15.4591 302.886 15.5608C302.404 15.6422 301.942 15.7541 301.5 15.8965C301.079 16.0389 300.677 16.2017 300.296 16.3848C299.934 16.5679 299.633 16.751 299.392 16.9341V13.9129C299.934 13.5873 300.657 13.272 301.561 12.9668C302.464 12.6616 303.518 12.509 304.723 12.509C306.63 12.509 308.045 12.8956 308.969 13.6687C309.912 14.4418 310.384 15.7643 310.384 17.636V24.35Z" fill="white"/>
<path d="M288.985 28.4094C287.62 28.4094 286.465 28.2466 285.522 27.9211C284.598 27.5752 283.875 27.2192 283.353 26.853V23.8927C284.036 24.3403 284.799 24.7269 285.642 25.0524C286.505 25.3779 287.459 25.5407 288.503 25.5407C291.113 25.5407 292.418 24.3403 292.418 21.9396C292.418 20.7799 292.127 19.9458 291.545 19.4371C290.962 18.9082 290.049 18.6437 288.804 18.6437H286.124V15.775H288.654C289.698 15.775 290.491 15.5105 291.033 14.9815C291.595 14.4322 291.876 13.6387 291.876 12.6011C291.876 11.5025 291.615 10.709 291.093 10.2207C290.571 9.71211 289.828 9.45779 288.864 9.45779C287.901 9.45779 286.957 9.62055 286.034 9.94608C285.11 10.2513 284.327 10.587 283.685 10.9532V7.99293C284.207 7.64706 284.939 7.33171 285.883 7.04688C286.847 6.7417 287.961 6.58911 289.226 6.58911C291.233 6.58911 292.779 7.06722 293.863 8.02345C294.948 8.97968 295.49 10.353 295.49 12.1434C295.49 13.5268 295.178 14.6051 294.556 15.3783C293.934 16.131 293.131 16.6804 292.147 17.0262C293.392 17.3111 294.365 17.8604 295.068 18.6742C295.771 19.488 296.122 20.6172 296.122 22.0617C296.122 23.1196 295.941 24.0453 295.58 24.8388C295.239 25.6323 294.747 26.2935 294.104 26.8225C293.482 27.3514 292.729 27.7482 291.846 28.0127C290.982 28.2771 290.029 28.4094 288.985 28.4094Z" fill="white"/>
<path fill-rule="evenodd" clip-rule="evenodd" d="M226.37 14.7995C226.539 14.6309 226.812 14.631 226.981 14.7995C227.15 14.9684 227.15 15.2429 226.981 15.4118L222.266 20.1266L226.982 24.8425C227.151 25.0113 227.151 25.285 226.982 25.4538C226.813 25.6227 226.539 25.6227 226.37 25.4538L221.654 20.738L216.939 25.4538C216.77 25.6226 216.497 25.6224 216.328 25.4538C216.159 25.2849 216.159 25.0114 216.328 24.8425L221.043 20.1266L216.328 15.4118C216.159 15.2429 216.159 14.9684 216.328 14.7995C216.497 14.631 216.77 14.6309 216.939 14.7995L221.654 19.5143L226.37 14.7995Z" fill="white"/>
<defs>
<clipPath id="paint0_angular_2128_18328_clip_path"><path d="M267.051 31.1455C270.155 30.3138 271.997 27.1231 271.166 24.0189C270.334 20.9147 267.143 19.0725 264.039 19.9043L265.545 25.5249L267.051 31.1455ZM262.704 14.9211C265.808 14.0893 267.65 10.8986 266.818 7.79441C265.987 4.69023 262.796 2.84807 259.692 3.67984L261.198 9.30045L262.704 14.9211ZM265.545 25.5249L264.039 19.9043C262.663 20.273 261.248 19.4564 260.88 18.0803L255.259 19.5864L249.638 21.0924C251.671 28.6768 259.467 33.1778 267.051 31.1455L265.545 25.5249ZM255.259 19.5864L260.88 18.0803C260.511 16.7042 261.328 15.2898 262.704 14.9211L261.198 9.30045L259.692 3.67984C252.107 5.71208 247.606 13.508 249.638 21.0924L255.259 19.5864Z"/></clipPath><clipPath id="paint1_angular_2128_18328_clip_path"><path d="M267.051 31.1455C263.947 31.9772 260.756 30.1351 259.924 27.0309C259.093 23.9267 260.935 20.736 264.039 19.9042L265.545 25.5248L267.051 31.1455ZM262.704 14.921C259.599 15.7528 256.409 13.9106 255.577 10.8064C254.745 7.70223 256.587 4.51152 259.692 3.67976L261.198 9.30038L262.704 14.921ZM265.545 25.5248L264.039 19.9042C265.415 19.5355 266.232 18.1211 265.863 16.745L271.483 15.2389L277.104 13.7329C279.136 21.3173 274.635 29.1132 267.051 31.1455L265.545 25.5248ZM271.483 15.2389L265.863 16.745C265.494 15.3689 264.08 14.5523 262.704 14.921L261.198 9.30038L259.692 3.67976C267.276 1.64751 275.072 6.14846 277.104 13.7329L271.483 15.2389Z"/></clipPath><filter id="filter0_f_2128_18328" x="258.458" y="20.1589" width="7.56864" height="8.84232" filterUnits="userSpaceOnUse" color-interpolation-filters="sRGB">
<feFlood flood-opacity="0" result="BackgroundImageFix"/>
<feBlend mode="normal" in="SourceGraphic" in2="BackgroundImageFix" result="shape"/>
<feGaussianBlur stdDeviation="0.819589" result="effect1_foregroundBlur_2128_18328"/>
</filter>
<clipPath id="clip0_2128_18328">
<rect width="28.72" height="28.72" fill="white" transform="translate(0 3.05151)"/>
</clipPath>
</defs>
</svg>
