<svg width="156" height="32" viewBox="0 0 156 32" fill="none" xmlns="http://www.w3.org/2000/svg" aria-hidden="true">
  <circle cx="16" cy="16" r="14" fill="#FC3F1D"/>
  <path d="M18.2 23.5V8.5h-1.6c-1.2 0-2.1.25-2.7.8-.6.5-.9 1.2-.9 2.1 0 .6.1 1.1.3 1.5.2.4.5.8.9 1.2.4.4.9.8 1.5 1.2l1.5 1.1-4.6 6.4h-3.4l4.4-6.1 1.9 1.8-1.6-1.1c-.9-.6-1.7-1.2-2.3-1.8-.6-.6-1.1-1.2-1.4-1.9-.3-.7-.4-1.5-.4-2.4 0-1.6.6-2.9 1.7-3.8 1.1-.9 2.7-1.4 4.8-1.4h4.9v15z" fill="#fff"/>
  <path d="M44 8.5h5.8l6.8 15h-3.6l-1.2-2.8H41.8L40.6 23.5h-3.5L44 8.5zm3.4 9.2-2-4.7-2 4.7h4z" fill="#FFDD00"/>
  <path d="M58.5 8.5h3.4v15h-3.4V8.5z" fill="#FFDD00"/>
  <path d="M72 8.5c2.2 0 3.9.6 5.1 1.7 1.2 1.1 1.8 2.7 1.8 4.7 0 2-.6 3.6-1.8 4.7-1.2 1.1-2.9 1.7-5.1 1.7h-5.4V8.5H72zm-.3 12.2c1.2 0 2.1-.3 2.8-1 .7-.7 1-1.6 1-2.8 0-1.2-.3-2.1-1-2.8-.7-.7-1.6-1-2.8-1h-1.6v8.6H71.7z" fill="#fff"/>
  <path d="M88.5 8.5h3.5l4.2 10.2V8.5h3.2v15h-3.3l-4.3-10.4v10.4h-3.3V8.5z" fill="#fff"/>
  <path d="M108 8.5h3.4l5.4 15h-3.7l-.9-2.6h-5.5l-.9 2.6H102l6-15zm2.8 9.5-1.8-5.2-1.8 5.2h3.6z" fill="#fff"/>
  <path d="M126.5 8.5c2.4 0 4.2.6 5.4 1.9 1.2 1.3 1.8 3.1 1.8 5.4 0 .5 0 1-.1 1.4h-9.5c.2 1.2.7 2.1 1.5 2.7.8.6 1.9.9 3.2.9 1 0 1.9-.1 2.7-.3.8-.2 1.6-.5 2.3-.8v2.8c-.7.3-1.5.6-2.4.8-.9.2-2 .3-3.3.3-2.8 0-4.9-.6-6.3-1.9-1.4-1.3-2.1-3.1-2.1-5.4 0-2.2.7-4 2.1-5.3 1.4-1.4 3.3-2 5.7-2zm-.2 2.4c-1 0-1.8.3-2.3.8-.5.5-.8 1.2-.9 2.1h6.2c0-.9-.3-1.6-.8-2.1-.5-.5-1.2-.8-2.2-.8z" fill="#fff"/>
  <path d="M144 8.5h3.4v15H144V8.5z" fill="#fff"/>
</svg>
